<?xml version="1.0" encoding="UTF-8"?> <svg xmlns="http://www.w3.org/2000/svg" width="150" height="18" viewBox="0 0 150 18" fill="none"><path d="M145.056 2.93771V2.92768C145.058 2.04926 145.658 1.32143 146.458 1.11815L146.596 0.455566C145.384 0.613682 144.438 1.65021 144.434 2.92265V2.93771C144.434 4.21266 145.382 5.2517 146.596 5.40982L146.458 4.74723C145.656 4.54143 145.058 3.81613 145.056 2.93771Z" fill="#8F6D4F"></path><path d="M148.758 2.93771V2.92768C148.756 2.04926 148.156 1.32143 147.355 1.11815L147.218 0.455566C148.43 0.613682 149.375 1.65021 149.379 2.92265V2.93771C149.379 4.21266 148.432 5.2517 147.218 5.40982L147.355 4.74723C148.158 4.54143 148.756 3.81613 148.758 2.93771Z" fill="#8F6D4F"></path><path d="M45.6102 0.00585938C45.5732 0.00585938 45.5411 0.0384875 45.5411 0.0761336V14.1232L37.5415 0.040997C37.5291 0.0184091 37.507 0.00585938 37.4823 0.00585938H35.6755C35.6583 0.00585938 35.6385 0.013389 35.6262 0.0259377C35.6139 0.0384865 35.6064 0.0560553 35.6064 0.0761336V17.3883C35.6064 17.4285 35.6385 17.4587 35.6755 17.4587H37.1787C37.1959 17.4587 37.2157 17.4511 37.228 17.4386C37.2404 17.426 37.2478 17.4084 37.2478 17.3883V3.17065L45.6472 17.4411C45.6595 17.4612 45.6818 17.4737 45.7064 17.4762L47.1406 17.4913C47.1603 17.4913 47.1775 17.4837 47.1899 17.4712C47.2022 17.4587 47.2096 17.4411 47.2096 17.421V0.0761336C47.2096 0.0384875 47.1775 0.00585938 47.1406 0.00585938H45.6127H45.6102Z" fill="#141F48"></path><path d="M118.978 10.0348L118.746 9.63074L118.813 9.60564C118.895 9.57553 118.964 9.54792 119.038 9.52533C120.746 8.9757 121.644 7.99439 121.866 6.43584C121.995 5.52731 121.997 4.51588 121.869 3.34382C121.736 2.11906 121.008 1.17289 119.709 0.535414C118.996 0.184048 118.194 0.00585938 117.322 0.00585938C115.777 0.00585938 111.164 0.0485256 111.12 0.0485256C111.083 0.0485256 111.051 0.0811527 111.051 0.118799V17.3934C111.051 17.4336 111.083 17.4636 111.12 17.4636H112.801C112.838 17.4636 112.87 17.4336 112.87 17.3934V9.99721C113.173 9.99721 113.854 9.99721 114.523 9.99211C115.213 9.99211 115.885 9.98712 116.108 9.98712C116.382 9.98712 116.878 10.0448 117.105 10.4213C118.413 12.5897 121.035 17.406 121.06 17.4537C121.071 17.4762 121.094 17.4887 121.118 17.4887H122.084C122.12 17.4887 122.153 17.4587 122.153 17.4185V15.1949C122.153 15.1798 122.148 15.1647 122.14 15.1547C121.089 13.6965 119.717 11.3123 118.981 10.0323L118.978 10.0348ZM120.301 4.83963C120.301 7.0457 119.717 8.24034 116.628 8.24034C116.322 8.24034 115.553 8.24034 114.773 8.24034C114.022 8.24034 113.26 8.24034 112.894 8.24034V1.65225C113.448 1.65225 114.309 1.65225 115.177 1.65477C116.099 1.65477 117.029 1.65978 117.608 1.65978C119.295 1.65978 120.301 2.84689 120.301 4.83461V4.83963Z" fill="#141F48"></path><path d="M27.5749 0.0712891H25.894C25.8559 0.0712891 25.825 0.102751 25.825 0.141561V17.4212C25.825 17.46 25.8559 17.4914 25.894 17.4914H27.5749C27.6131 17.4914 27.644 17.46 27.644 17.4212V0.141561C27.644 0.102751 27.6131 0.0712891 27.5749 0.0712891Z" fill="#141F48"></path><path d="M139.707 3.98152C139.682 2.76429 139.147 1.76541 138.112 1.00998C137.199 0.342382 136.125 0.0136065 134.829 0.0010578C133.242 -0.00647185 128.884 0.0286647 128.842 0.0286647C128.804 0.0286647 128.772 0.0612918 128.772 0.098938V17.3936C128.772 17.4312 128.802 17.4639 128.842 17.4639C128.873 17.4639 131.297 17.4865 133.203 17.4865C133.857 17.4865 134.45 17.4865 134.864 17.479C135.456 17.4689 136.002 17.3961 136.483 17.2606C138.552 16.6858 139.734 15.2126 139.727 13.2224C139.724 12.6703 139.727 12.1207 139.727 11.5685C139.727 11.1394 139.729 10.7101 139.727 10.281C139.727 9.69872 139.727 9.11897 139.727 8.53671C139.729 7.04592 139.732 5.50242 139.702 3.98403L139.707 3.98152ZM138.114 12.7054C138.132 13.496 137.809 14.3594 137.204 14.9843C136.617 15.5941 135.77 15.8803 135.072 15.8803H130.505V1.7353H135.425C135.967 1.7353 136.683 1.97874 137.208 2.51833C137.789 3.11315 138.038 3.84348 138.031 4.52111C138.023 5.1862 138.105 12.1407 138.114 12.7054Z" fill="#141F48"></path><path d="M65.9113 3.98152C65.8866 2.76429 65.351 1.76541 64.3168 1.00998C63.4036 0.342382 62.3299 0.0136065 61.0341 0.0010578C59.447 -0.00647185 55.0881 0.0286647 55.0461 0.0286647C55.0091 0.0286647 54.9771 0.0612918 54.9771 0.098938V17.3936C54.9771 17.4312 55.0066 17.4639 55.0461 17.4639C55.0782 17.4639 57.502 17.4865 59.4075 17.4865C60.0616 17.4865 60.6539 17.4865 61.0686 17.479C61.661 17.4689 62.2064 17.3961 62.6878 17.2606C64.7562 16.6858 65.9385 15.2126 65.931 13.2224C65.9286 12.6703 65.931 12.1207 65.931 11.5685C65.931 11.1394 65.9335 10.7101 65.931 10.281C65.931 9.69872 65.931 9.11897 65.931 8.53671C65.9335 7.04592 65.9359 5.50242 65.9064 3.98403L65.9113 3.98152ZM64.3193 12.7054C64.3365 13.496 64.0132 14.3594 63.4085 14.9843C62.821 15.5941 61.9745 15.8803 61.276 15.8803H56.7097V1.7353H61.6289C62.1719 1.7353 62.8877 1.97874 63.4135 2.51833C63.9935 3.11315 64.2428 3.84348 64.2354 4.52111C64.228 5.1862 64.3094 12.1407 64.3193 12.7054Z" fill="#141F48"></path><path d="M100.822 0.184473C100.815 0.154356 100.788 0.134277 100.756 0.134277H98.2652C98.2331 0.134277 98.2059 0.156865 98.1985 0.186981L93.8989 17.2833C93.8939 17.306 93.8989 17.3261 93.9112 17.3436C93.9236 17.3612 93.9433 17.3712 93.9655 17.3712H95.6044C95.6365 17.3712 95.6636 17.3487 95.671 17.316C95.6784 17.2833 96.4066 14.0031 96.7694 12.5374C96.841 12.1961 96.9077 12.1233 97.1914 12.1233C97.2063 12.1233 97.2236 12.1233 97.2409 12.1233C98.0332 12.1409 101.935 12.1308 102.439 12.1308L103.823 17.311C103.831 17.3411 103.858 17.3637 103.89 17.3637H105.159C105.196 17.3637 105.228 17.3336 105.228 17.2934V15.1903C105.228 15.1903 105.228 15.1777 105.226 15.1702C103.885 10.8107 100.854 0.287372 100.825 0.181966L100.822 0.184473ZM101.975 10.4518H97.3273L99.5165 2.02663L101.975 10.4518Z" fill="#141F48"></path><path d="M9.11958 0.166752H8.542C8.50992 0.166752 8.48277 0.18934 8.47536 0.219461L5.0988 14.1938L1.66302 0.174285C1.65561 0.14417 1.62846 0.121582 1.59638 0.121582H0.0685348C0.0463215 0.121582 0.0265752 0.13162 0.014234 0.149189C0.00189284 0.166752 -0.00304534 0.18934 0.00189176 0.209421L4.30651 17.2355C4.31391 17.2657 4.34106 17.2883 4.37315 17.2883H5.87877C5.91086 17.2883 5.93801 17.2657 5.94542 17.2355L9.18622 4.22502V0.239542C9.18622 0.221968 9.18128 0.201888 9.16894 0.18934C9.1566 0.176793 9.13932 0.169271 9.11958 0.169271V0.166752Z" fill="#141F48"></path><path d="M19.2816 0.11872H17.7537C17.7217 0.11872 17.6945 0.141308 17.6871 0.171425L14.2513 14.1909L10.8747 0.216601C10.8673 0.18648 10.8401 0.163892 10.8081 0.163892H10.2305C10.2132 0.163892 10.1935 0.171425 10.1811 0.183973C10.1688 0.19652 10.1614 0.214093 10.1614 0.234174L10.1663 4.23721L13.4071 17.2301C13.4145 17.2603 13.4417 17.2828 13.4738 17.2828H14.9794C15.0115 17.2828 15.0386 17.2603 15.046 17.2301L19.3481 0.204053C19.3532 0.183972 19.3481 0.161385 19.3358 0.143819C19.3235 0.12625 19.3037 0.116211 19.2816 0.116211V0.11872Z" fill="#141F48"></path><path d="M80.1137 0.166752H79.5361C79.504 0.166752 79.4769 0.18934 79.4694 0.219461L76.0929 14.1938L72.6571 0.174285C72.6498 0.14417 72.6226 0.121582 72.5905 0.121582H71.0627C71.0404 0.121582 71.0207 0.13162 71.0083 0.149189C70.996 0.166752 70.9911 0.18934 70.996 0.209421L75.3006 17.2355C75.3081 17.2657 75.3351 17.2883 75.3672 17.2883H76.8729C76.905 17.2883 76.9321 17.2657 76.9396 17.2355L80.1828 4.22502V0.239542C80.1828 0.221968 80.1779 0.201888 80.1655 0.18934C80.1532 0.176793 80.1359 0.169271 80.1161 0.169271L80.1137 0.166752Z" fill="#141F48"></path><path d="M90.2752 0.11872H88.7473C88.7152 0.11872 88.6882 0.141308 88.6807 0.171425L85.2449 14.1909L81.8684 0.216601C81.861 0.18648 81.8338 0.163892 81.8017 0.163892H81.2242C81.2069 0.163892 81.1871 0.171425 81.1748 0.183973C81.1625 0.19652 81.155 0.214093 81.155 0.234174L81.1599 4.23721L84.4008 17.2301C84.4082 17.2603 84.4354 17.2828 84.4674 17.2828H85.973C86.0051 17.2828 86.0323 17.2603 86.0397 17.2301L90.3443 0.204053C90.3492 0.183972 90.3443 0.161385 90.332 0.143819C90.3196 0.12625 90.2999 0.116211 90.2776 0.116211L90.2752 0.11872Z" fill="#141F48"></path></svg> 